# xmcd
#
# Track frame offsets: 
#        150
#        67604
#        105886
#
# Disc length: 2710 seconds
#
# Revision: 2
# Processed by: cddbd v1.5.2PL0 Copyright (c) Steve Scherf et al.
# Submitted via: ExactAudioCopy v0.99pb5
#
DISCID=130a9403
DTITLE=Neil Ardley, Ian Carr, Mike Gibbs, Stan Tracey - Will Power - A
DTITLE=Shakespeare Birthday Celebration In Music
DYEAR=1975
DGENRE=Contemporary Jazz
TTITLE0=Alas Sweet Lady
TTITLE1=Will's Birthday Suite: Heyday
TTITLE2=Will's Birthday Suite: Dirge (Fear no more the heat of the sun
TTITLE2=) - Fool Talk - Heyday (reprise)
EXTD=YEAR: 1975
EXTT0=
EXTT1=
EXTT2=
PLAYORDER=
